<svg width="82" height="82" viewBox="0 0 82 82" version="1.1" xmlns="http://www.w3.org/2000/svg" xmlns:xlink="http://www.w3.org/1999/xlink">
<g id="Canvas" fill="none">
<g id="01">
<g id="Layer 4">
<g id="Vector">
<path d="M 28.9841 10.7128L 28.9841 7.93543L 30.3016 7.93543C 30.651 7.93543 30.9861 7.79609 31.2332 7.54806C 31.4802 7.30003 31.619 6.96363 31.619 6.61286L 31.619 3.96772C 31.619 2.91541 31.2026 1.90621 30.4614 1.16212C 29.7202 0.418028 28.7149 0 27.6667 0L 19.7619 0C 18.7137 0 17.7084 0.418028 16.9672 1.16212C 16.2259 1.90621 15.8095 2.91541 15.8095 3.96772L 15.8095 6.61286C 15.8095 6.96363 15.9483 7.30003 16.1954 7.54806C 16.4425 7.79609 16.7776 7.93543 17.127 7.93543L 18.4444 7.93543L 18.4444 10.7128C 16.9576 11.0198 15.6216 11.832 14.6616 13.0125C 13.7017 14.1929 13.1765 15.6696 13.1746 17.1934L 13.1746 26.9143C 12.329 26.6103 11.4379 26.4537 10.5397 26.4514L 7.90476 26.4514C 5.80893 26.4535 3.79954 27.2903 2.31756 28.778C 0.835585 30.2657 0.00209269 32.2829 0 34.3869L 0 35.7094C 0 36.0602 0.138802 36.3966 0.385874 36.6446C 0.632946 36.8927 0.968048 37.032 1.31746 37.032L 30.3016 37.032C 31.3498 37.032 32.3551 36.614 33.0963 35.8699C 33.8376 35.1258 34.254 34.1166 34.254 33.0643L 34.254 17.1934C 34.2521 15.6696 33.7269 14.1929 32.7669 13.0125C 31.807 11.832 30.471 11.0198 28.9841 10.7128ZM 31.619 18.516L 31.619 21.1611L 15.8095 21.1611L 15.8095 18.516L 31.619 18.516ZM 18.4444 3.96772C 18.4444 3.61695 18.5832 3.28055 18.8303 3.03252C 19.0774 2.78448 19.4125 2.64514 19.7619 2.64514L 27.6667 2.64514C 28.0161 2.64514 28.3512 2.78448 28.5983 3.03252C 28.8453 3.28055 28.9841 3.61695 28.9841 3.96772L 28.9841 5.29029L 18.4444 5.29029L 18.4444 3.96772ZM 26.3492 7.93543L 26.3492 10.5806L 21.0794 10.5806L 21.0794 7.93543L 26.3492 7.93543ZM 19.7619 13.2257L 27.6667 13.2257C 28.4812 13.2291 29.2748 13.4851 29.9389 13.9585C 30.603 14.432 31.1051 15.0999 31.3766 15.8709L 16.0519 15.8709C 16.3234 15.0999 16.8256 14.432 17.4897 13.9585C 18.1538 13.4851 18.9474 13.2291 19.7619 13.2257ZM 2.63492 34.3869C 2.63492 32.9838 3.19014 31.6382 4.17842 30.6461C 5.16671 29.6539 6.50711 29.0966 7.90476 29.0966L 10.5397 29.0966C 11.9373 29.0966 13.2777 29.6539 14.266 30.6461C 15.2543 31.6382 15.8095 32.9838 15.8095 34.3869L 2.63492 34.3869ZM 30.3016 34.3869L 18.4444 34.3869C 18.4436 33.2729 18.2085 32.1716 17.7544 31.1551C 17.3003 30.1386 16.6376 29.2298 15.8095 28.4882L 15.8095 23.8063L 31.619 23.8063L 31.619 33.0643C 31.619 33.4151 31.4802 33.7515 31.2332 33.9995C 30.9861 34.2475 30.651 34.3869 30.3016 34.3869Z" transform="translate(47.4286 44.9674)" fill="#DD87A5"/>
</g>
<g id="Vector_2">
<path d="M 39.2247 14.5218L 38.9481 14.3367C 37.8661 13.6117 36.5943 13.2251 35.2934 13.2257L 33.0788 13.2257C 31.8848 13.226 30.7132 13.5514 29.689 14.1674L 25.5798 16.6432L 28.0461 12.5168C 28.66 11.4892 28.9842 10.3134 28.9841 9.11517L 28.9841 6.89193C 28.9849 5.58642 28.5998 4.31004 27.8775 3.22443L 27.693 2.94537C 27.0921 2.03862 26.2771 1.29518 25.3207 0.781276C 24.3642 0.267374 23.2959 -0.00102187 22.2111 2.92368e-06L 19.9477 2.92368e-06C 18.8628 -0.00102187 17.7946 0.267374 16.8381 0.781276C 15.8816 1.29518 15.0666 2.03862 14.4657 2.94537L 14.2813 3.22443C 13.559 4.31004 13.1738 5.58642 13.1746 6.89193L 13.1746 9.11517C 13.1749 10.3138 13.4991 11.4899 14.1126 12.5181L 16.5789 16.6432L 12.4684 14.1674C 11.4448 13.5511 10.2736 13.2256 9.07994 13.2257L 6.86529 13.2257C 5.56483 13.2249 4.29338 13.6116 3.21197 14.3367L 2.93399 14.5218C 2.03075 15.1251 1.29017 15.9432 0.778257 16.9034C 0.266342 17.8636 -0.00101792 18.936 2.91238e-06 20.0251L 2.91238e-06 22.2972C -0.00101792 23.3863 0.266342 24.4587 0.778257 25.4189C 1.29017 26.3791 2.03075 27.1972 2.93399 27.8005L 3.21197 27.9856C 4.29338 28.7107 5.56483 29.0974 6.86529 29.0966L 9.07994 29.0966C 10.2739 29.0963 11.4455 28.7709 12.4698 28.1549L 16.5789 25.6791L 14.1126 29.8055C 13.4987 30.8331 13.1745 32.0089 13.1746 33.2071L 13.1746 35.4304C 13.1739 36.7363 13.5591 38.013 14.2813 39.0992L 14.4657 39.3769C 15.0666 40.2837 15.8816 41.0271 16.8381 41.541C 17.7946 42.0549 18.8628 42.3233 19.9477 42.3223L 22.2111 42.3223C 23.2959 42.3233 24.3642 42.0549 25.3207 41.541C 26.2771 41.0271 27.0921 40.2837 27.693 39.3769L 27.8775 39.0992C 28.5997 38.013 28.9848 36.7363 28.9841 35.4304L 28.9841 33.2071C 28.9839 32.0085 28.6597 30.8324 28.0461 29.8042L 25.5798 25.6791L 29.6903 28.1549C 30.7139 28.7712 31.8852 29.0967 33.0788 29.0966L 35.2934 29.0966C 36.5943 29.0973 37.8661 28.7106 38.9481 27.9856L 39.2247 27.8005C 40.128 27.1972 40.8686 26.3791 41.3805 25.4189C 41.8924 24.4587 42.1598 23.3863 42.1587 22.2972L 42.1587 20.0251C 42.1598 18.936 41.8924 17.8636 41.3805 16.9034C 40.8686 15.9432 40.128 15.1251 39.2247 14.5218ZM 21.0794 23.8063C 20.5582 23.8063 20.0488 23.6512 19.6155 23.3605C 19.1822 23.0699 18.8444 22.6567 18.645 22.1734C 18.4456 21.6901 18.3934 21.1582 18.4951 20.6451C 18.5967 20.132 18.8477 19.6607 19.2162 19.2908C 19.5847 18.9208 20.0542 18.6689 20.5653 18.5668C 21.0764 18.4648 21.6062 18.5172 22.0877 18.7174C 22.5692 18.9176 22.9807 19.2566 23.2702 19.6916C 23.5598 20.1266 23.7143 20.638 23.7143 21.1612C 23.7143 21.8627 23.4367 22.5355 22.9425 23.0316C 22.4484 23.5276 21.7782 23.8063 21.0794 23.8063ZM 15.8095 9.11517L 15.8095 6.89193C 15.8072 6.10904 16.0364 5.34309 16.4683 4.69117L 16.654 4.4121C 17.0148 3.86729 17.5045 3.42073 18.0793 3.11238C 18.654 2.80403 19.296 2.6435 19.9477 2.64515L 22.2111 2.64515C 22.8628 2.6435 23.5047 2.80403 24.0795 3.11238C 24.6542 3.42073 25.1439 3.86729 25.5047 4.4121L 25.6905 4.69117C 26.1223 5.34309 26.3516 6.10904 26.3492 6.89193L 26.3492 9.11517C 26.3489 9.83437 26.1545 10.54 25.7867 11.1572L 22.7842 16.183C 22.6524 16.1393 22.5286 16.097 22.3968 16.0626L 22.3968 13.2257L 19.7619 13.2257L 19.7619 16.0587C 19.6302 16.0931 19.4984 16.1354 19.3746 16.179L 16.3734 11.1533C 16.0052 10.5376 15.8103 9.83324 15.8095 9.11517ZM 11.1141 25.8854C 10.4997 26.2557 9.79657 26.4514 9.07994 26.4514L 6.86529 26.4514C 6.08543 26.4538 5.32244 26.2236 4.67304 25.7902L 4.39505 25.6037C 3.85234 25.2415 3.40751 24.7499 3.10035 24.1729C 2.7932 23.5959 2.63328 22.9515 2.63492 22.2972L 2.63492 20.0251C 2.63328 19.3708 2.7932 18.7264 3.10035 18.1494C 3.40751 17.5724 3.85234 17.0808 4.39505 16.7186L 4.67304 16.5322C 5.32244 16.0987 6.08543 15.8685 6.86529 15.8709L 9.07994 15.8709C 9.79636 15.8712 10.4993 16.0664 11.1141 16.4356L 16.1204 19.4497C 16.077 19.582 16.0348 19.7063 16.0006 19.8386L 13.1746 19.8386L 13.1746 22.4837L 15.9966 22.4837C 16.0309 22.616 16.073 22.7482 16.1165 22.8726L 11.1141 25.8854ZM 26.3492 33.2071L 26.3492 35.4304C 26.3516 36.2133 26.1223 36.9792 25.6905 37.6311L 25.5047 37.9102C 25.1439 38.455 24.6542 38.9016 24.0795 39.2099C 23.5047 39.5183 22.8628 39.6788 22.2111 39.6772L 19.9477 39.6772C 19.296 39.6788 18.654 39.5183 18.0793 39.2099C 17.5045 38.9016 17.0148 38.455 16.654 37.9102L 16.4683 37.6311C 16.0364 36.9792 15.8072 36.2133 15.8095 35.4304L 15.8095 33.2071C 15.8099 32.4879 16.0043 31.7823 16.3721 31.1651L 19.3746 26.1393C 19.5063 26.183 19.6302 26.2253 19.7619 26.2597L 19.7619 29.0966L 22.3968 29.0966L 22.3968 26.2636C 22.5286 26.2292 22.6603 26.1869 22.7842 26.1433L 25.7853 31.1691C 26.1535 31.7847 26.3484 32.4891 26.3492 33.2071ZM 39.5238 22.2972C 39.5254 22.9515 39.3655 23.5959 39.0584 24.1729C 38.7512 24.7499 38.3064 25.2415 37.7637 25.6037L 37.4857 25.7902C 36.8363 26.2236 36.0733 26.4538 35.2934 26.4514L 33.0788 26.4514C 32.3624 26.4511 31.6594 26.256 31.0446 25.8867L 26.0383 22.8726C 26.0818 22.7403 26.1239 22.616 26.1582 22.4837L 28.9841 22.4837L 28.9841 19.8386L 26.1621 19.8386C 26.1279 19.7063 26.0857 19.5741 26.0422 19.4497L 31.0486 16.4369C 31.6618 16.0673 32.3635 15.8717 33.0788 15.8709L 35.2934 15.8709C 36.0733 15.8685 36.8363 16.0987 37.4857 16.5322L 37.7637 16.7186C 38.3064 17.0808 38.7512 17.5724 39.0584 18.1494C 39.3655 18.7264 39.5254 19.3708 39.5238 20.0251L 39.5238 22.2972Z" transform="translate(39.5238 0)" fill="#DD87A5"/>
</g>
<g id="Vector_3">
<path d="M 26.3492 0C 21.1378 0 16.0435 1.55135 11.7104 4.45787C 7.37728 7.36439 4.00003 11.4955 2.00573 16.3289C 0.0114167 21.1623 -0.510385 26.4808 0.506304 31.6119C 1.52299 36.7429 4.03251 41.4561 7.71751 45.1554C 11.4025 48.8547 16.0975 51.374 21.2087 52.3946C 26.32 53.4153 31.6179 52.8914 36.4326 50.8894C 41.2473 48.8873 45.3625 45.497 48.2578 41.1471C 51.1531 36.7972 52.6984 31.683 52.6984 26.4514C 52.6904 19.4386 49.9118 12.7152 44.9721 7.75634C 40.0324 2.79748 33.335 0.00805094 26.3492 0ZM 26.3492 44.9674C 22.7013 44.9674 19.1352 43.8815 16.102 41.8469C 13.0689 39.8124 10.7048 36.9206 9.30877 33.5372C 7.91276 30.1538 7.5475 26.4309 8.25918 22.8391C 8.97086 19.2474 10.7275 15.9482 13.307 13.3586C 15.8865 10.7691 19.173 9.00566 22.7509 8.29121C 26.3288 7.57677 30.0373 7.94345 33.4076 9.34488C 36.7779 10.7463 39.6585 13.1196 41.6852 16.1645C 43.7119 19.2094 44.7937 22.7893 44.7937 26.4514C 44.7884 31.3606 42.8435 36.0672 39.3856 39.5384C 35.9278 43.0097 31.2394 44.9622 26.3492 44.9674ZM 40.2721 10.6044C 36.7706 7.49341 32.3337 5.64668 27.6667 5.35774L 27.6667 2.7126C 33.0317 3.00716 38.1357 5.13207 42.1337 8.73559L 40.2721 10.6044ZM 25.0318 5.35774C 20.3647 5.64668 15.9278 7.49341 12.4263 10.6044L 10.5647 8.73559C 14.5628 5.13207 19.6667 3.00716 25.0318 2.7126L 25.0318 5.35774ZM 10.5634 12.4745C 7.46446 15.9896 5.62487 20.4437 5.33704 25.1289L 2.70212 25.1289C 2.99555 19.743 5.11225 14.6193 8.70184 10.6057L 10.5634 12.4745ZM 5.33704 27.774C 5.62487 32.4592 7.46446 36.9133 10.5634 40.4284L 8.70184 42.2972C 5.11225 38.2836 2.99555 33.1598 2.70212 27.774L 5.33704 27.774ZM 12.4263 42.2985C 15.9278 45.4095 20.3647 47.2562 25.0318 47.5451L 25.0318 50.1903C 19.6676 49.8976 14.5637 47.775 10.5647 44.1739L 12.4263 42.2985ZM 27.6667 47.5451C 32.3337 47.2562 36.7706 45.4095 40.2721 42.2985L 42.1337 44.1739C 38.1347 47.775 33.0309 49.8976 27.6667 50.1903L 27.6667 47.5451ZM 42.135 40.4284C 45.234 36.9133 47.0736 32.4592 47.3614 27.774L 49.9963 27.774C 49.7047 33.159 47.5904 38.2827 44.0032 42.2972L 42.135 40.4284ZM 47.3614 25.1289C 47.0736 20.4437 45.234 15.9896 42.135 12.4745L 44.0032 10.6057C 47.5904 14.6202 49.7047 19.7439 49.9963 25.1289L 47.3614 25.1289Z" transform="translate(0 29.0966)" fill="#DD87A5"/>
</g>
<g id="Vector_4">
<path d="M 15.8095 0C 12.6827 0 9.62609 0.930811 7.02623 2.67472C 4.42637 4.41864 2.40002 6.89733 1.20344 9.79735C 0.00684989 12.6974 -0.306231 15.8885 0.303782 18.9671C 0.913796 22.0458 2.41951 24.8737 4.63051 27.0933C 6.84151 29.3128 9.6585 30.8244 12.7252 31.4368C 15.792 32.0492 18.9708 31.7349 21.8596 30.5336C 24.7484 29.3324 27.2175 27.2982 28.9547 24.6882C 30.6918 22.0783 31.6191 19.0098 31.6191 15.8709C 31.6145 11.663 29.9474 7.62887 26.9835 4.6535C 24.0197 1.67812 20.0011 0.00455108 15.8095 0ZM 28.9169 14.5483L 26.2583 14.5483C 25.9627 12.2208 24.9056 10.0577 23.2529 8.39859C 21.6002 6.73948 19.4455 5.67827 17.127 5.38155L 17.127 2.71259C 20.149 3.02149 22.9723 4.36772 25.1203 6.524C 27.2682 8.68028 28.6092 11.5145 28.9169 14.5483ZM 15.8095 23.8063C 14.2461 23.8063 12.7178 23.3409 11.4179 22.4689C 10.1179 21.597 9.10478 20.3576 8.50648 18.9076C 7.90819 17.4576 7.75165 15.8621 8.05666 14.3227C 8.36166 12.7834 9.11452 11.3695 10.22 10.2597C 11.3255 9.14987 12.734 8.3941 14.2674 8.08791C 15.8008 7.78172 17.3901 7.93887 18.8346 8.53948C 20.279 9.14009 21.5135 10.1572 22.3821 11.4622C 23.2507 12.7672 23.7143 14.3014 23.7143 15.8709C 23.7122 17.9748 22.8787 19.992 21.3967 21.4797C 19.9148 22.9675 17.9054 23.8042 15.8095 23.8063ZM 14.4921 2.71259L 14.4921 5.38155C 12.1736 5.67827 10.0188 6.73948 8.36614 8.39859C 6.71344 10.0577 5.65633 12.2208 5.36075 14.5483L 2.70212 14.5483C 3.00982 11.5145 4.35084 8.68028 6.49879 6.524C 8.64674 4.36772 11.47 3.02149 14.4921 2.71259ZM 2.70212 17.1934L 5.36075 17.1934C 5.65633 19.5209 6.71344 21.684 8.36614 23.3431C 10.0188 25.0022 12.1736 26.0635 14.4921 26.3602L 14.4921 29.0291C 11.47 28.7202 8.64674 27.374 6.49879 25.2177C 4.35084 23.0614 3.00982 20.2272 2.70212 17.1934ZM 17.127 29.0291L 17.127 26.3602C 19.4455 26.0635 21.6002 25.0022 23.2529 23.3431C 24.9056 21.684 25.9627 19.5209 26.2583 17.1934L 28.9169 17.1934C 28.6092 20.2272 27.2682 23.0614 25.1203 25.2177C 22.9723 27.374 20.149 28.7202 17.127 29.0291Z" transform="translate(10.5397 39.6771)" fill="#DD87A5"/>
</g>
<g id="Vector_5">
<path d="M 5.26984 0C 4.22757 0 3.2087 0.31027 2.34208 0.891575C 1.47546 1.47288 0.800006 2.29911 0.401145 3.26578C 0.00228285 4.23245 -0.102078 5.29616 0.10126 6.32237C 0.304598 7.34859 0.806504 8.29122 1.5435 9.03109C 2.2805 9.77094 3.2195 10.2748 4.24175 10.4789C 5.264 10.6831 6.32359 10.5783 7.28652 10.1779C 8.24946 9.77747 9.0725 9.0994 9.65156 8.22942C 10.2306 7.35943 10.5397 6.33661 10.5397 5.29029C 10.5397 3.88722 9.98447 2.54161 8.99618 1.54949C 8.0079 0.557369 6.66749 0 5.26984 0ZM 5.26984 7.93543C 4.74871 7.93543 4.23927 7.7803 3.80596 7.48965C 3.37265 7.19899 3.03492 6.78588 2.83549 6.30254C 2.63606 5.8192 2.58388 5.28735 2.68555 4.77424C 2.78722 4.26114 3.03817 3.78982 3.40667 3.41989C 3.77517 3.04996 4.24467 2.79803 4.7558 2.69597C 5.26692 2.59391 5.79672 2.64629 6.27818 2.84649C 6.75965 3.0467 7.17117 3.38573 7.4607 3.82072C 7.75023 4.25572 7.90476 4.76713 7.90476 5.29029C 7.90476 5.99182 7.62716 6.66463 7.13301 7.16069C 6.63887 7.65675 5.96867 7.93543 5.26984 7.93543Z" transform="translate(21.0794 50.2577)" fill="#DD87A5"/>
</g>
</g>
</g>
</g>
</svg>

