<svg width="82" height="82" viewBox="0 0 82 82" version="1.1" xmlns="http://www.w3.org/2000/svg" xmlns:xlink="http://www.w3.org/1999/xlink">
<g id="Canvas" fill="none">
<g id="03">
<g id="Layer 24">
<g id="Vector">
<path d="M 2.93399 27.8005L 3.21197 27.9856C 3.78398 28.3667 4.41219 28.6551 5.07354 28.84C 4.35696 29.7609 3.96289 30.8933 3.95238 32.0618L 3.95238 33.0643C 3.95238 34.4674 4.5076 35.813 5.49589 36.8051C 6.48417 37.7972 7.82458 38.3546 9.22223 38.3546L 10.2209 38.3546C 11.3848 38.344 12.5129 37.9484 13.4302 37.2291C 13.6147 37.8933 13.9018 38.5244 14.2813 39.0992L 14.4657 39.3769C 15.0664 40.2839 15.8814 41.0274 16.8379 41.5413C 17.7944 42.0553 18.8628 42.3236 19.9477 42.3223L 22.2111 42.3223C 23.296 42.3236 24.3643 42.0553 25.3208 41.5413C 26.2773 41.0274 27.0923 40.2839 27.693 39.3769L 27.8775 39.0992C 28.2569 38.5244 28.5441 37.8933 28.7285 37.2291C 29.6459 37.9484 30.7739 38.344 31.9379 38.3546L 32.9365 38.3546C 34.3342 38.3546 35.6746 37.7972 36.6628 36.8051C 37.6511 35.813 38.2064 34.4674 38.2064 33.0643L 38.2064 32.0618C 38.1958 30.8933 37.8018 29.7609 37.0852 28.84C 37.7469 28.6548 38.3755 28.3665 38.9481 27.9856L 39.2248 27.8005C 40.1282 27.1974 40.8689 26.3793 41.3808 25.4191C 41.8927 24.4588 42.16 23.3864 42.1587 22.2972L 42.1587 20.0251C 42.16 18.936 41.8927 17.8635 41.3808 16.9032C 40.8689 15.943 40.1282 15.1249 39.2248 14.5218L 38.9481 14.3367C 38.3755 13.9558 37.7469 13.6675 37.0852 13.4823C 37.8018 12.5614 38.1958 11.429 38.2064 10.2605L 38.2064 9.25801C 38.2064 7.85494 37.6511 6.50933 36.6628 5.51721C 35.6746 4.52509 34.3342 3.96772 32.9365 3.96772L 31.9379 3.96772C 30.7739 3.97827 29.6459 4.37387 28.7285 5.09323C 28.5443 4.42931 28.2571 3.79866 27.8775 3.22443L 27.693 2.94537C 27.0923 2.03846 26.2773 1.29489 25.3208 0.780963C 24.3643 0.26704 23.296 -0.0012546 22.2111 4.41064e-06L 19.9477 4.41064e-06C 18.8628 -0.0012546 17.7944 0.26704 16.8379 0.780963C 15.8814 1.29489 15.0664 2.03846 14.4657 2.94537L 14.2813 3.22443C 13.9016 3.79866 13.6144 4.42931 13.4302 5.09323C 12.5129 4.37387 11.3848 3.97827 10.2209 3.96772L 9.22223 3.96772C 7.82458 3.96772 6.48417 4.52509 5.49589 5.51721C 4.5076 6.50933 3.95238 7.85494 3.95238 9.25801L 3.95238 10.2605C 3.96289 11.429 4.35696 12.5614 5.07354 13.4823C 4.41219 13.6672 3.78398 13.9556 3.21197 14.3367L 2.93399 14.5218C 2.03058 15.1249 1.28988 15.943 0.777944 16.9032C 0.266008 17.8635 -0.00124975 18.936 4.39359e-06 20.0251L 4.39359e-06 22.2972C -0.00124975 23.3864 0.266008 24.4588 0.777944 25.4191C 1.28988 26.3793 2.03058 27.1974 2.93399 27.8005ZM 14.114 29.8042C 13.4994 30.832 13.1747 32.0083 13.1746 33.2071L 13.1746 33.8393L 12.0837 34.9344C 11.5885 35.4287 10.9192 35.7071 10.2209 35.7094L 9.22223 35.7094C 8.5234 35.7094 7.8532 35.4308 7.35906 34.9347C 6.86491 34.4386 6.58731 33.7658 6.58731 33.0643L 6.58731 32.0618C 6.58961 31.3607 6.86698 30.6888 7.35934 30.1917L 8.45019 29.0966L 9.07994 29.0966C 10.2741 29.0965 11.4459 28.7706 12.4698 28.1536L 16.5802 25.6777L 14.114 29.8042ZM 21.0794 18.516C 21.6005 18.516 22.1099 18.6711 22.5433 18.9618C 22.9766 19.2525 23.3143 19.6656 23.5137 20.1489C 23.7131 20.6322 23.7653 21.1641 23.6637 21.6772C 23.562 22.1903 23.311 22.6616 22.9425 23.0316C 22.574 23.4015 22.1045 23.6534 21.5934 23.7555C 21.0823 23.8575 20.5525 23.8052 20.071 23.6049C 19.5896 23.4047 19.178 23.0657 18.8885 22.6307C 18.599 22.1957 18.4444 21.6843 18.4444 21.1612C 18.4444 20.4596 18.7221 19.7868 19.2162 19.2908C 19.7103 18.7947 20.3805 18.516 21.0794 18.516ZM 26.3492 35.4304C 26.352 36.2133 26.1227 36.9794 25.6905 37.6311L 25.5047 37.9102C 25.144 38.4551 24.6543 38.9017 24.0796 39.2101C 23.5048 39.5184 22.8628 39.6789 22.2111 39.6772L 19.9477 39.6772C 19.296 39.6789 18.654 39.5184 18.0792 39.2101C 17.5044 38.9017 17.0147 38.4551 16.654 37.9102L 16.4683 37.6311C 16.0361 36.9794 15.8068 36.2133 15.8095 35.4304L 15.8095 33.2071C 15.8096 32.4877 16.0045 31.7819 16.3734 31.1651L 19.3746 26.1393C 19.5063 26.183 19.6302 26.2253 19.7619 26.2597L 19.7619 29.0966L 22.3968 29.0966L 22.3968 26.2636C 22.5286 26.2293 22.6603 26.1869 22.7842 26.1433L 25.7853 31.1691C 26.1535 31.7847 26.3484 32.4891 26.3492 33.2071L 26.3492 35.4304ZM 35.5714 33.0643C 35.5714 33.7658 35.2938 34.4386 34.7997 34.9347C 34.3055 35.4308 33.6353 35.7094 32.9365 35.7094L 31.9379 35.7094C 31.2395 35.7071 30.5702 35.4287 30.075 34.9344L 28.9841 33.8393L 28.9841 33.2071C 28.9841 32.0083 28.6594 30.832 28.0448 29.8042L 25.5785 25.6777L 29.689 28.1536C 30.7129 28.7706 31.8846 29.0965 33.0788 29.0966L 33.7085 29.0966L 34.7994 30.1917C 35.2918 30.6888 35.5691 31.3607 35.5714 32.0618L 35.5714 33.0643ZM 37.7637 16.7239C 38.3057 17.0855 38.7502 17.5763 39.0573 18.1523C 39.3644 18.7283 39.5247 19.3717 39.5238 20.0251L 39.5238 22.2972C 39.5256 22.9515 39.3657 23.596 39.0585 24.173C 38.7514 24.75 38.3065 25.2416 37.7637 25.6037L 37.4857 25.7902C 36.8365 26.224 36.0734 26.4542 35.2934 26.4514L 33.0788 26.4514C 32.3622 26.4514 31.659 26.2557 31.0446 25.8854L 26.0383 22.8726C 26.0818 22.7403 26.1239 22.616 26.1582 22.4837L 28.9841 22.4837L 28.9841 19.8386L 26.1621 19.8386C 26.1279 19.7063 26.0857 19.5741 26.0422 19.4497L 31.0486 16.4369C 31.6618 16.0673 32.3635 15.8717 33.0788 15.8709L 35.2934 15.8709C 36.0734 15.8681 36.8365 16.0983 37.4857 16.5322L 37.7637 16.7239ZM 28.0448 12.5181C 28.6594 11.4903 28.9841 10.314 28.9841 9.11517L 28.9841 8.48298L 30.075 7.38789C 30.5702 6.89363 31.2395 6.61517 31.9379 6.61286L 32.9365 6.61286C 33.6353 6.61286 34.3055 6.89155 34.7997 7.38761C 35.2938 7.88367 35.5714 8.55647 35.5714 9.25801L 35.5714 10.2605C 35.5691 10.9616 35.2918 11.6335 34.7994 12.1306L 33.7085 13.2257L 33.0788 13.2257C 31.8846 13.2258 30.7129 13.5517 29.689 14.1687L 25.5785 16.6446L 28.0448 12.5181ZM 15.8095 6.89193C 15.8068 6.10899 16.0361 5.34292 16.4683 4.69117L 16.654 4.4121C 17.0147 3.8672 17.5044 3.42059 18.0792 3.11223C 18.654 2.80387 19.296 2.64339 19.9477 2.64515L 22.2111 2.64515C 22.8628 2.64339 23.5048 2.80387 24.0796 3.11223C 24.6543 3.42059 25.144 3.8672 25.5047 4.4121L 25.6905 4.69117C 26.1227 5.34292 26.352 6.10899 26.3492 6.89193L 26.3492 9.11517C 26.3491 9.83458 26.1542 10.5404 25.7853 11.1572L 22.7842 16.183C 22.6524 16.1393 22.5286 16.097 22.3968 16.0626L 22.3968 13.2257L 19.7619 13.2257L 19.7619 16.0587C 19.6302 16.0931 19.4984 16.1354 19.3746 16.179L 16.3734 11.1533C 16.0052 10.5376 15.8103 9.83324 15.8095 9.11517L 15.8095 6.89193ZM 6.58731 9.25801C 6.58731 8.55647 6.86491 7.88367 7.35906 7.38761C 7.8532 6.89155 8.5234 6.61286 9.22223 6.61286L 10.2209 6.61286C 10.9192 6.61517 11.5885 6.89363 12.0837 7.38789L 13.1746 8.48298L 13.1746 9.11517C 13.1747 10.314 13.4994 11.4903 14.114 12.5181L 16.5802 16.6446L 12.4698 14.1687C 11.4459 13.5517 10.2741 13.2258 9.07994 13.2257L 8.45019 13.2257L 7.35934 12.1306C 6.86698 11.6335 6.58961 10.9616 6.58731 10.2605L 6.58731 9.25801ZM 2.63492 20.0251C 2.63317 19.3708 2.79303 18.7263 3.1002 18.1493C 3.40737 17.5723 3.85226 17.0807 4.39505 16.7186L 4.67304 16.5322C 5.32227 16.0983 6.08537 15.8681 6.86529 15.8709L 9.07994 15.8709C 9.79657 15.8709 10.4997 16.0666 11.1141 16.4369L 16.1204 19.4497C 16.077 19.582 16.0348 19.7063 16.0006 19.8386L 13.1746 19.8386L 13.1746 22.4837L 15.9966 22.4837C 16.0309 22.616 16.073 22.7482 16.1165 22.8726L 11.1101 25.8854C 10.4969 26.255 9.79523 26.4507 9.07994 26.4514L 6.86529 26.4514C 6.08537 26.4542 5.32227 26.224 4.67304 25.7902L 4.39505 25.6037C 3.85226 25.2416 3.40737 24.75 3.1002 24.173C 2.79303 23.596 2.63317 22.9515 2.63492 22.2972L 2.63492 20.0251Z" transform="translate(0.317444 0)" fill="#DD87A5"/>
</g>
<g id="Vector_2">
<path d="M 35.5714 21.1609L 24.8578 21.1609L 27.4348 17.2804C 28.447 15.7611 28.9863 13.974 28.9841 12.1462L 28.9841 11.2204C 28.9873 10.004 28.7501 8.79909 28.2863 7.67535C 27.8225 6.5516 27.1412 5.53136 26.282 4.67369L 22.0108 0.387231C 21.7637 0.139287 21.4287 -5.60939e-08 21.0794 -5.60939e-08C 20.73 -5.60939e-08 20.395 0.139287 20.1479 0.387231L 15.8767 4.67501C 15.0175 5.53269 14.3363 6.55292 13.8724 7.67667C 13.4086 8.80042 13.1714 10.0054 13.1746 11.2217L 13.1746 12.1475C 13.1724 13.9753 13.7117 15.7625 14.7239 17.2818L 17.3009 21.1609L 11.8571 21.1609C 8.7135 21.1644 5.69962 22.4196 3.47673 24.6511C 1.25384 26.8826 0.00348712 29.9082 0 33.064L 0 51.58C 0.00337661 52.3977 0.258334 53.1944 0.72999 53.8611C 1.20165 54.5277 1.86696 55.0318 2.63492 55.3044L 2.63492 80.6766C 2.63492 81.0274 2.77372 81.3638 3.02079 81.6118C 3.26787 81.8598 3.60297 81.9992 3.95238 81.9992L 38.2063 81.9992C 38.5558 81.9992 38.8909 81.8598 39.1379 81.6118C 39.385 81.3638 39.5238 81.0274 39.5238 80.6766L 39.5238 25.1286C 39.5238 24.0763 39.1074 23.0671 38.3662 22.323C 37.625 21.5789 36.6197 21.1609 35.5714 21.1609ZM 15.8095 12.1462L 15.8095 11.2204C 15.8074 10.3515 15.9769 9.49087 16.3082 8.68816C 16.6395 7.88544 17.126 7.15661 17.7396 6.5438L 21.0794 3.19241L 24.4191 6.54513C 25.0327 7.15794 25.5192 7.88677 25.8505 8.68948C 26.1818 9.49219 26.3513 10.3529 26.3492 11.2217L 26.3492 12.1475C 26.3506 13.4531 25.9654 14.7297 25.2425 15.815L 22.3968 20.1028L 22.3968 11.9029L 19.7619 11.9029L 19.7619 20.1028L 16.9162 15.8177C 16.1925 14.7312 15.8073 13.4532 15.8095 12.1462ZM 5.26984 79.354L 5.26984 55.3044C 6.0378 55.0318 6.70312 54.5277 7.17477 53.8611C 7.64643 53.1944 7.90138 52.3977 7.90476 51.58L 7.90476 40.9994C 7.90476 40.6487 8.04356 40.3123 8.29064 40.0642C 8.53771 39.8162 8.87281 39.6769 9.22222 39.6769C 9.57163 39.6769 9.90674 39.8162 10.1538 40.0642C 10.4009 40.3123 10.5397 40.6487 10.5397 40.9994L 10.5397 59.5155C 10.5397 60.5678 10.9561 61.577 11.6973 62.321C 12.4385 63.0651 13.4438 63.4832 14.4921 63.4832C 15.5403 63.4832 16.5456 63.0651 17.2868 62.321C 18.028 61.577 18.4444 60.5678 18.4444 59.5155L 18.4444 33.064C 18.4444 32.7132 18.5832 32.3768 18.8303 32.1288C 19.0774 31.8808 19.4125 31.7414 19.7619 31.7414C 20.1113 31.7414 20.4464 31.8808 20.6935 32.1288C 20.9406 32.3768 21.0794 32.7132 21.0794 33.064L 21.0794 38.3543C 21.0794 39.4066 21.4958 40.4158 22.237 41.1599C 22.9782 41.904 23.9835 42.322 25.0317 42.322C 26.08 42.322 27.0853 41.904 27.8265 41.1599C 28.5677 40.4158 28.9841 39.4066 28.9841 38.3543L 28.9841 35.7092C 28.9841 35.3584 29.1229 35.022 29.37 34.774C 29.6171 34.5259 29.9522 34.3866 30.3016 34.3866C 30.651 34.3866 30.9861 34.5259 31.2332 34.774C 31.4802 35.022 31.619 35.3584 31.619 35.7092L 31.619 46.2897C 31.619 47.342 32.0355 48.3512 32.7767 49.0953C 33.5179 49.8394 34.5232 50.2575 35.5714 50.2575C 36.0213 50.2531 36.467 50.1707 36.8889 50.0141L 36.8889 79.354L 5.26984 79.354ZM 35.5714 47.6123C 35.222 47.6123 34.8869 47.473 34.6398 47.2249C 34.3928 46.9769 34.254 46.6405 34.254 46.2897L 34.254 35.7092C 34.254 34.6569 33.8376 33.6477 33.0963 32.9036C 32.3551 32.1595 31.3498 31.7414 30.3016 31.7414C 29.2533 31.7414 28.248 32.1595 27.5068 32.9036C 26.7656 33.6477 26.3492 34.6569 26.3492 35.7092L 26.3492 38.3543C 26.3492 38.7051 26.2104 39.0415 25.9633 39.2895C 25.7163 39.5375 25.3812 39.6769 25.0317 39.6769C 24.6823 39.6769 24.3472 39.5375 24.1002 39.2895C 23.8531 39.0415 23.7143 38.7051 23.7143 38.3543L 23.7143 33.064C 23.7143 32.0117 23.2979 31.0025 22.5567 30.2584C 21.8154 29.5143 20.8101 29.0963 19.7619 29.0963C 18.7137 29.0963 17.7084 29.5143 16.9671 30.2584C 16.2259 31.0025 15.8095 32.0117 15.8095 33.064L 15.8095 59.5155C 15.8095 59.8662 15.6707 60.2026 15.4236 60.4507C 15.1766 60.6987 14.8415 60.838 14.4921 60.838C 14.1427 60.838 13.8075 60.6987 13.5605 60.4507C 13.3134 60.2026 13.1746 59.8662 13.1746 59.5155L 13.1746 40.9994C 13.1746 39.9471 12.7582 38.9379 12.017 38.1938C 11.2758 37.4498 10.2705 37.0317 9.22222 37.0317C 8.17399 37.0317 7.16868 37.4498 6.42747 38.1938C 5.68625 38.9379 5.26984 39.9471 5.26984 40.9994L 5.26984 51.58C 5.26984 51.9308 5.13104 52.2672 4.88397 52.5152C 4.6369 52.7633 4.30179 52.9026 3.95238 52.9026C 3.60297 52.9026 3.26787 52.7633 3.02079 52.5152C 2.77372 52.2672 2.63492 51.9308 2.63492 51.58L 2.63492 33.064C 2.63806 30.6096 3.61069 28.2566 5.33951 26.5211C 7.06834 24.7856 9.41222 23.8092 11.8571 23.806L 35.5714 23.806C 35.9208 23.806 36.2559 23.9454 36.503 24.1934C 36.7501 24.4414 36.8889 24.7778 36.8889 25.1286L 36.8889 46.2897C 36.8889 46.6405 36.7501 46.9769 36.503 47.2249C 36.2559 47.473 35.9208 47.6123 35.5714 47.6123Z" transform="translate(42.4762 0.000366211)" fill="#DD87A5"/>
</g>
<g id="Vector_3">
<path d="M 40.8413 21.1622L 24.8578 21.1622L 27.4348 17.2818C 28.447 15.7625 28.9863 13.9753 28.9841 12.1475L 28.9841 11.2217C 28.9873 10.0054 28.7501 8.80042 28.2863 7.67667C 27.8225 6.55292 27.1412 5.53269 26.282 4.67501L 22.0108 0.387231C 21.7637 0.139287 21.4287 8.28079e-07 21.0794 8.28079e-07C 20.73 8.28079e-07 20.395 0.139287 20.1479 0.387231L 15.8767 4.67501C 15.0173 5.53284 14.336 6.5533 13.8722 7.67728C 13.4084 8.80127 13.1713 10.0065 13.1746 11.2231L 13.1746 12.1489C 13.1724 13.9766 13.7117 15.7638 14.7239 17.2831L 17.3009 21.1622L 1.31746 21.1622C 0.968048 21.1622 0.632947 21.3015 0.385875 21.5496C 0.138803 21.7976 0 22.134 0 22.4848L 0 35.7105C 0 36.0612 0.138803 36.3977 0.385875 36.6457C 0.632947 36.8937 0.968048 37.0331 1.31746 37.0331L 40.8413 37.0331C 41.1907 37.0331 41.5258 36.8937 41.7729 36.6457C 42.0199 36.3977 42.1587 36.0612 42.1587 35.7105L 42.1587 22.4848C 42.1587 22.134 42.0199 21.7976 41.7729 21.5496C 41.5258 21.3015 41.1907 21.1622 40.8413 21.1622ZM 15.8095 12.1475L 15.8095 11.2217C 15.8074 10.3529 15.9769 9.49219 16.3082 8.68948C 16.6395 7.88677 17.126 7.15794 17.7396 6.54513L 21.0794 3.19373L 24.4191 6.54645C 25.0327 7.15926 25.5192 7.88809 25.8505 8.6908C 26.1818 9.49351 26.3513 10.3542 26.3492 11.2231L 26.3492 12.1489C 26.3506 13.4545 25.9654 14.731 25.2425 15.8164L 22.3968 20.1041L 22.3968 11.9042L 19.7619 11.9042L 19.7619 20.1041L 16.9162 15.819C 16.1925 14.7325 15.8073 13.4545 15.8095 12.1475ZM 39.5238 23.8073L 39.5238 26.4525L 2.63492 26.4525L 2.63492 23.8073L 39.5238 23.8073ZM 2.63492 34.3879L 2.63492 29.0976L 39.5238 29.0976L 39.5238 34.3879L 2.63492 34.3879Z" transform="translate(0.317444 44.9664)" fill="#DD87A5"/>
</g>
</g>
</g>
</g>
</svg>

