<svg width="82" height="82" viewBox="0 0 82 82" version="1.1" xmlns="http://www.w3.org/2000/svg" xmlns:xlink="http://www.w3.org/1999/xlink">
<g id="Canvas" fill="none">
<g id="04">
<g id="Layer 8">
<g id="Vector">
<path d="M 81.6825 9.16413L 81.6825 7.93546C 81.6804 5.8315 80.8469 3.81431 79.365 2.32659C 77.883 0.838858 75.8736 0.0021318 73.7778 3.09899e-05L 72.5538 3.09899e-05C 71.5155 -0.002892 70.4869 0.200987 69.5276 0.599864C 68.5683 0.998741 67.6974 1.58469 66.9652 2.32379L 40.2958 29.0966L 1.31746 29.0966C 0.968048 29.0966 0.632947 29.236 0.385875 29.484C 0.138803 29.732 0 30.0684 0 30.4192C 0.00634547 37.0666 1.85908 43.5805 5.35005 49.2291C 8.84102 54.8777 13.8319 59.4371 19.7619 62.395L 19.7619 70.0963C 19.7619 70.4471 19.9007 70.7835 20.1478 71.0315C 20.3948 71.2796 20.73 71.4189 21.0794 71.4189L 60.6032 71.4189C 60.9526 71.4189 61.2877 71.2796 61.5348 71.0315C 61.7818 70.7835 61.9206 70.4471 61.9206 70.0963L 61.9206 62.395C 67.8506 59.4371 72.8415 54.8777 76.3325 49.2291C 79.8234 43.5805 81.6762 37.0666 81.6825 30.4192C 81.6825 30.0684 81.5437 29.732 81.2967 29.484C 81.0496 29.236 80.7145 29.0966 80.3651 29.0966L 65.101 29.0966L 79.3678 14.7745C 80.104 14.0395 80.6877 13.1651 81.085 12.2021C 81.4824 11.2391 81.6854 10.2065 81.6825 9.16413ZM 75.8673 14.5483L 73.7778 16.6459L 65.101 7.93546L 67.1905 5.83786L 75.8673 14.5483ZM 59.2857 68.7738L 22.3968 68.7738L 22.3968 63.5787C 26.5861 65.2648 31.0581 66.1303 35.5714 66.1286L 46.1111 66.1286C 50.6245 66.1303 55.0965 65.2648 59.2857 63.5787L 59.2857 68.7738ZM 46.1111 63.4835L 35.5714 63.4835C 27.9829 63.4729 20.6301 60.8362 14.7523 56.0179C 8.87457 51.1995 4.83134 44.4941 3.30419 37.032L 78.3783 37.032C 76.8512 44.4941 72.808 51.1995 66.9302 56.0179C 61.0525 60.8362 53.6996 63.4729 46.1111 63.4835ZM 78.8026 34.3869L 2.87997 34.3869C 2.77589 33.514 2.69552 32.6332 2.66127 31.7418L 79.0213 31.7418C 78.987 32.6332 78.9066 33.514 78.8026 34.3869ZM 44.0216 29.0966L 63.2381 9.80558L 71.9149 18.516L 61.3752 29.0966L 44.0216 29.0966ZM 79.0476 9.16413C 79.0449 10.454 78.5677 11.6974 77.7078 12.6557L 69.0758 3.99023C 70.0304 3.12692 71.269 2.64793 72.5538 2.64517L 73.7778 2.64517C 75.1754 2.64517 76.5158 3.20254 77.5041 4.19466C 78.4924 5.18679 79.0476 6.53239 79.0476 7.93546L 79.0476 9.16413Z" transform="translate(0.000488281 10.5811)" fill="#DD87A5"/>
</g>
<g id="Vector_2">
<path d="M 7.4297 15.3344C 7.91203 16.2217 8.51852 17.0349 9.23067 17.7495L 9.5429 18.0629C 10.5192 19.0486 11.6807 19.8301 12.96 20.362C 14.2393 20.8939 15.6111 21.1657 16.9958 21.1617L 19.7624 21.1617C 20.1119 21.1617 20.447 21.0224 20.694 20.7743C 20.9411 20.5263 21.0799 20.1899 21.0799 19.8391L 21.0799 17.0617C 21.0838 15.6719 20.8129 14.2951 20.283 13.011C 19.7532 11.727 18.9748 10.5612 17.9931 9.58125L 17.6809 9.2678C 16.9691 8.55289 16.159 7.94405 15.2752 7.45985L 1.94906 0.161895C 1.69922 0.024881 1.41188 -0.0272012 1.13009 0.0134465C 0.848287 0.0540942 0.587185 0.185284 0.385877 0.387374C 0.184568 0.589463 0.0538851 0.851578 0.0133946 1.13447C -0.027096 1.41736 0.0247848 1.70581 0.161269 1.95662L 7.4297 15.3344ZM 16.1249 11.45C 16.8622 12.1849 17.4468 13.0592 17.8451 14.0225C 18.2433 14.9858 18.4472 16.0188 18.445 17.0617L 18.445 18.5165L 16.9958 18.5165C 16.5987 18.5134 16.2023 18.4807 15.8101 18.4187L 15.8101 11.13L 15.818 11.1366L 16.1249 11.45ZM 13.1751 9.32203L 13.1751 17.522C 12.5261 17.1624 11.9305 16.7132 11.4058 16.1875L 11.0936 15.874C 10.5625 15.3389 10.11 14.7306 9.74974 14.0674L 4.61955 4.63748L 13.1751 9.32203Z" fill="#DD87A5"/>
</g>
<g id="Vector_3">
<path d="M 1.3175 21.1617L 4.08417 21.1617C 5.46865 21.1656 6.84013 20.8937 8.11921 20.3617C 9.39828 19.8298 10.5595 19.0485 11.5357 18.0629L 11.848 17.7495C 12.5601 17.0349 13.1666 16.2217 13.6489 15.3344L 20.9187 1.95662C 21.0552 1.70581 21.107 1.41736 21.0666 1.13447C 21.0261 0.851578 20.8954 0.589464 20.6941 0.387374C 20.4928 0.185285 20.2317 0.0540942 19.9499 0.0134465C 19.6681 -0.0272012 19.3807 0.0248813 19.1309 0.161895L 5.80477 7.45852C 4.92097 7.94273 4.11085 8.55157 3.39909 9.26648L 3.08685 9.57993C 2.10494 10.5601 1.32651 11.726 0.796645 13.0103C 0.266782 14.2946 -0.00397923 15.6716 4.41895e-05 17.0617L 4.41895e-05 19.8391C 4.41895e-05 20.1899 0.138847 20.5263 0.385918 20.7743C 0.63299 21.0224 0.968092 21.1617 1.3175 21.1617ZM 11.3368 14.0674C 10.9749 14.7329 10.5202 15.343 9.98639 15.8793L 9.67416 16.1928C 9.14948 16.7185 8.55388 17.1677 7.90481 17.5273L 7.90481 9.32732L 16.4604 4.64277L 11.3368 14.0674ZM 2.63496 17.0617C 2.6322 16.0194 2.83536 14.9868 3.23268 14.0238C 3.63001 13.0608 4.21362 12.1865 4.94974 11.4514L 5.26198 11.1379L 5.26989 11.13L 5.26989 18.4187C 4.8776 18.4807 4.48128 18.5134 4.08417 18.5165L 2.63496 18.5165L 2.63496 17.0617Z" transform="translate(23.7147 7.93542)" fill="#DD87A5"/>
</g>
<g id="Vector_4">
<path d="M 41.4314 9.39719L 35.1959 6.26798C 33.8738 5.61178 32.4165 5.27697 30.9418 5.29061C 30.7125 5.29061 30.4859 5.3078 30.2593 5.32367C 30.1578 4.59277 29.8551 3.90478 29.3855 3.33704C 28.9158 2.76931 28.2977 2.34431 27.6007 2.10982L 21.4969 0.0677679C 21.2267 -0.0225916 20.9345 -0.0225916 20.6643 0.0677679L 14.5605 2.11643C 13.8622 2.35038 13.243 2.7759 12.7732 3.34482C 12.3033 3.91374 12.0015 4.60335 11.9018 5.33557C 11.6384 5.31441 11.3643 5.29722 11.0903 5.29722C 9.65852 5.29846 8.24654 5.63302 6.96532 6.2746L 0.729785 9.40381C 0.51055 9.5135 0.32612 9.68237 0.197205 9.89147C 0.0682913 10.1006 2.82266e-07 10.3416 2.82266e-07 10.5875C 2.82266e-07 10.8334 0.0682913 11.0744 0.197205 11.2835C 0.32612 11.4926 0.51055 11.6615 0.729785 11.7712L 6.96532 14.9004C 8.28793 15.5543 9.74517 15.8869 11.2194 15.8712C 11.4486 15.8712 11.6752 15.854 11.9018 15.8381C 12.0034 16.569 12.3061 17.257 12.7757 17.8247C 13.2454 18.3925 13.8634 18.8175 14.5605 19.052L 20.6643 21.094C 20.9345 21.1844 21.2267 21.1844 21.4969 21.094L 27.6007 19.052C 28.299 18.818 28.9181 18.3925 29.388 17.8236C 29.8579 17.2547 30.1597 16.5651 30.2593 15.8328C 30.5228 15.854 30.7969 15.8712 31.0709 15.8712C 32.5027 15.8699 33.9146 15.5354 35.1959 14.8938L 41.4314 11.7712C 41.6506 11.6615 41.8351 11.4926 41.964 11.2835C 42.0929 11.0744 42.1612 10.8334 42.1612 10.5875C 42.1612 10.3416 42.0929 10.1006 41.964 9.89147C 41.8351 9.68237 41.6506 9.5135 41.4314 9.40381L 41.4314 9.39719ZM 14.4933 5.87386C 14.4935 5.5964 14.5806 5.32602 14.7424 5.10101C 14.9041 4.87599 15.1322 4.70774 15.3944 4.62006L 21.0806 2.71688L 26.7668 4.62006C 27.029 4.70774 27.2571 4.87599 27.4188 5.10101C 27.5806 5.32602 27.6677 5.5964 27.6679 5.87386L 27.6679 5.89899C 26.7744 6.23766 25.9395 6.7152 25.1937 7.31414C 24.7073 6.68419 24.0838 6.17431 23.3709 5.82353C 22.658 5.47276 21.8745 5.29039 21.0806 5.29039C 20.2866 5.29039 19.5032 5.47276 18.7903 5.82353C 18.0774 6.17431 17.4539 6.68419 16.9675 7.31414C 16.2216 6.71697 15.3867 6.24162 14.4933 5.9056L 14.4933 5.87386ZM 23.7155 10.5809C 23.7155 11.1041 23.561 11.6155 23.2715 12.0505C 22.9819 12.4855 22.5704 12.8245 22.0889 13.0247C 21.6075 13.2249 21.0777 13.2773 20.5665 13.1752C 20.0554 13.0731 19.5859 12.8212 19.2174 12.4513C 18.8489 12.0814 18.598 11.61 18.4963 11.0969C 18.3946 10.5838 18.4468 10.052 18.6462 9.56864C 18.8457 9.08531 19.1834 8.67219 19.6167 8.38153C 20.05 8.09088 20.5595 7.93575 21.0806 7.93575C 21.7794 7.93575 22.4496 8.21443 22.9438 8.71049C 23.4379 9.20655 23.7155 9.87936 23.7155 10.5809ZM 11.0903 13.226C 10.0674 13.2244 9.05877 12.9854 8.14314 12.5277L 4.26453 10.5809L 8.14314 8.63407C 9.09963 8.16181 10.1536 7.92256 11.2194 7.93575C 12.0847 7.93337 12.9418 8.10328 13.7412 8.43563C 14.5406 8.76798 15.2664 9.25619 15.8766 9.872C 15.7818 10.3362 15.7818 10.815 15.8766 11.2792C 15.2493 11.9089 14.5024 12.4056 13.6802 12.74C 12.858 13.0745 11.9773 13.2397 11.0903 13.226ZM 27.6679 15.2879C 27.6677 15.5654 27.5806 15.8358 27.4188 16.0608C 27.2571 16.2858 27.029 16.454 26.7668 16.5417L 21.0806 18.4449L 15.3944 16.5417C 15.1322 16.454 14.9041 16.2858 14.7424 16.0608C 14.5806 15.8358 14.4935 15.5654 14.4933 15.2879L 14.4933 15.2628C 15.3868 14.9241 16.2217 14.4466 16.9675 13.8476C 17.4539 14.4776 18.0774 14.9875 18.7903 15.3383C 19.5032 15.689 20.2866 15.8714 21.0806 15.8714C 21.8745 15.8714 22.658 15.689 23.3709 15.3383C 24.0838 14.9875 24.7073 14.4776 25.1937 13.8476C 25.9395 14.4448 26.7745 14.9202 27.6679 15.2562L 27.6679 15.2879ZM 34.0181 12.5277C 33.0616 13 32.0076 13.2392 30.9418 13.226C 30.0765 13.2284 29.2194 13.0585 28.42 12.7262C 27.6206 12.3938 26.8948 11.9056 26.2846 11.2898C 26.3794 10.8256 26.3794 10.3468 26.2846 9.88258C 27.2883 8.89955 28.5707 8.25275 29.9555 8.03108C 31.3403 7.80941 32.7595 8.02376 34.0181 8.64465L 37.8967 10.5809L 34.0181 12.5277Z" transform="translate(19.7612 50.2579)" fill="#DD87A5"/>
</g>
<g id="Vector_5">
<path d="M 2.63492 0L 0 0L 0 13.2257L 2.63492 13.2257L 2.63492 0Z" transform="translate(15.8101 23.8068)" fill="#DD87A5"/>
</g>
<g id="Vector_6">
<path d="M 2.63492 0L 0 0L 0 5.29029L 2.63492 5.29029L 2.63492 0Z" transform="translate(21.0798 31.7422)" fill="#DD87A5"/>
</g>
<g id="Vector_7">
<path d="M 2.63492 0L 0 0L 0 5.29029L 2.63492 5.29029L 2.63492 0Z" transform="translate(10.5403 23.8068)" fill="#DD87A5"/>
</g>
</g>
</g>
</g>
</svg>

