<svg width="82" height="82" viewBox="0 0 82 82" version="1.1" xmlns="http://www.w3.org/2000/svg" xmlns:xlink="http://www.w3.org/1999/xlink">
<g id="Canvas" fill="none">
<g id="02">
<g id="Layer 28">
<g id="Vector">
<path d="M 2.93399 27.8005L 3.21065 27.9856C 3.78326 28.3665 4.41187 28.6548 5.07354 28.84C 4.35696 29.7609 3.96289 30.8933 3.95238 32.0618L 3.95238 33.0643C 3.95238 34.4674 4.5076 35.813 5.49588 36.8051C 6.48417 37.7972 7.82457 38.3546 9.22222 38.3546L 10.2195 38.3546C 11.3849 38.3508 12.5153 37.955 13.4302 37.2304C 13.6149 37.8941 13.9021 38.5247 14.2813 39.0992L 14.4657 39.3769C 15.0662 40.2841 15.8811 41.0279 16.8377 41.5418C 17.7942 42.0558 18.8627 42.3239 19.9477 42.3223L 22.2111 42.3223C 23.296 42.3239 24.3645 42.0558 25.3211 41.5418C 26.2777 41.0279 27.0926 40.2841 27.693 39.3769L 27.8775 39.0992C 28.2566 38.5247 28.5438 37.8941 28.7285 37.2304C 29.6434 37.955 30.7739 38.3508 31.9392 38.3546L 32.9365 38.3546C 34.3342 38.3546 35.6746 37.7972 36.6628 36.8051C 37.6511 35.813 38.2063 34.4674 38.2063 33.0643L 38.2063 32.0618C 38.1958 30.8933 37.8018 29.7609 37.0852 28.84C 37.7469 28.6548 38.3755 28.3665 38.9481 27.9856L 39.2247 27.8005C 40.1278 27.1971 40.8683 26.3789 41.3802 25.4187C 41.8921 24.4586 42.1595 23.3863 42.1587 22.2972L 42.1587 20.0251C 42.1595 18.9361 41.8921 17.8637 41.3802 16.9036C 40.8683 15.9434 40.1278 15.1252 39.2247 14.5218L 38.9481 14.3367C 38.3755 13.9558 37.7469 13.6675 37.0852 13.4823C 37.8018 12.5614 38.1958 11.429 38.2063 10.2605L 38.2063 9.25801C 38.2063 7.85494 37.6511 6.50933 36.6628 5.51721C 35.6746 4.52509 34.3342 3.96772 32.9365 3.96772L 31.9392 3.96772C 30.7739 3.97149 29.6434 4.3673 28.7285 5.09191C 28.5441 4.4285 28.2569 3.79832 27.8775 3.22444L 27.693 2.94538C 27.0926 2.03821 26.2777 1.29445 25.3211 0.780493C 24.3645 0.26654 23.296 -0.00160355 22.2111 7.21429e-06L 19.9477 7.21429e-06C 18.8627 -0.00160355 17.7942 0.26654 16.8377 0.780493C 15.8811 1.29445 15.0662 2.03821 14.4657 2.94538L 14.2813 3.22444C 13.9019 3.79832 13.6147 4.4285 13.4302 5.09191C 12.5153 4.3673 11.3849 3.97149 10.2195 3.96772L 9.22222 3.96772C 7.82457 3.96772 6.48417 4.52509 5.49588 5.51721C 4.5076 6.50933 3.95238 7.85494 3.95238 9.25801L 3.95238 10.2605C 3.96289 11.429 4.35696 12.5614 5.07354 13.4823C 4.41219 13.6672 3.78398 13.9556 3.21197 14.3367L 2.93399 14.5218C 2.03091 15.1252 1.29046 15.9434 0.778568 16.9036C 0.266673 17.8637 -0.000786027 18.9361 1.73515e-06 20.0251L 1.73515e-06 22.2972C -0.000786027 23.3863 0.266673 24.4586 0.778568 25.4187C 1.29046 26.3789 2.03091 27.1971 2.93399 27.8005ZM 14.1126 29.8055C 13.4987 30.8331 13.1745 32.0089 13.1746 33.2071L 13.1746 33.8393L 12.0837 34.9344C 11.8394 35.1808 11.5489 35.3762 11.2289 35.5092C 10.9089 35.6422 10.5659 35.7103 10.2195 35.7094L 9.22222 35.7094C 8.5234 35.7094 7.8532 35.4308 7.35905 34.9347C 6.86491 34.4386 6.5873 33.7658 6.5873 33.0643L 6.5873 32.0618C 6.58903 31.3606 6.8665 30.6885 7.35933 30.1917L 8.45019 29.0966L 9.07994 29.0966C 10.2741 29.0965 11.4459 28.7706 12.4698 28.1536L 16.5789 25.6791L 14.1126 29.8055ZM 21.0794 18.516C 21.6005 18.516 22.1099 18.6712 22.5433 18.9618C 22.9766 19.2525 23.3143 19.6656 23.5137 20.1489C 23.7131 20.6322 23.7653 21.1641 23.6637 21.6772C 23.562 22.1903 23.311 22.6616 22.9425 23.0316C 22.574 23.4015 22.1045 23.6534 21.5934 23.7555C 21.0823 23.8575 20.5525 23.8052 20.071 23.605C 19.5896 23.4047 19.178 23.0657 18.8885 22.6307C 18.599 22.1957 18.4444 21.6843 18.4444 21.1612C 18.4444 20.4596 18.7221 19.7868 19.2162 19.2908C 19.7103 18.7947 20.3805 18.516 21.0794 18.516ZM 26.3492 35.4304C 26.3516 36.2133 26.1223 36.9792 25.6905 37.6311L 25.5047 37.9102C 25.1441 38.4552 24.6544 38.9019 24.0796 39.2102C 23.5048 39.5186 22.8628 39.679 22.2111 39.6772L 19.9477 39.6772C 19.2959 39.679 18.6539 39.5186 18.0791 39.2102C 17.5043 38.9019 17.0146 38.4552 16.654 37.9102L 16.4683 37.6311C 16.0364 36.9792 15.8072 36.2133 15.8095 35.4304L 15.8095 33.2071C 15.81 32.488 16.0044 31.7823 16.3721 31.1651L 19.3746 26.1393C 19.5063 26.183 19.6302 26.2253 19.7619 26.2597L 19.7619 29.0966L 22.3968 29.0966L 22.3968 26.2636C 22.5286 26.2293 22.6603 26.1869 22.7842 26.1433L 25.7853 31.1691C 26.1529 31.7849 26.3478 32.4892 26.3492 33.2071L 26.3492 35.4304ZM 35.5714 33.0643C 35.5714 33.7658 35.2938 34.4386 34.7997 34.9347C 34.3055 35.4308 33.6353 35.7094 32.9365 35.7094L 31.9392 35.7094C 31.5929 35.7103 31.2498 35.6422 30.9298 35.5092C 30.6099 35.3762 30.3193 35.1808 30.075 34.9344L 28.9841 33.8393L 28.9841 33.2071C 28.9839 32.0085 28.6597 30.8324 28.0461 29.8042L 25.5798 25.6791L 29.689 28.1536C 30.7129 28.7706 31.8846 29.0965 33.0788 29.0966L 33.7085 29.0966L 34.7994 30.1917C 35.2922 30.6885 35.5697 31.3606 35.5714 32.0618L 35.5714 33.0643ZM 37.7637 16.7239C 38.3051 17.0862 38.749 17.5771 39.056 18.153C 39.3631 18.7288 39.5238 19.3719 39.5238 20.0251L 39.5238 22.2972C 39.5246 22.9513 39.3644 23.5954 39.0573 24.1723C 38.7502 24.7492 38.3058 25.2409 37.7637 25.6037L 37.4857 25.7902C 36.8365 26.224 36.0734 26.4542 35.2934 26.4514L 33.0788 26.4514C 32.3621 26.4519 31.6588 26.2562 31.0446 25.8854L 26.0383 22.8726C 26.0818 22.7403 26.1239 22.616 26.1582 22.4837L 28.9841 22.4837L 28.9841 19.8386L 26.1621 19.8386C 26.1279 19.7063 26.0857 19.5741 26.0422 19.4498L 31.0486 16.4369C 31.6616 16.0668 32.3634 15.8711 33.0788 15.8709L 35.2934 15.8709C 36.0734 15.8681 36.8365 16.0983 37.4857 16.5322L 37.7637 16.7239ZM 28.0461 12.5168C 28.66 11.4892 28.9842 10.3134 28.9841 9.11517L 28.9841 8.48298L 30.075 7.38789C 30.3193 7.14151 30.6099 6.94616 30.9298 6.81313C 31.2498 6.68011 31.5929 6.61204 31.9392 6.61287L 32.9365 6.61287C 33.6353 6.61287 34.3055 6.89155 34.7997 7.38761C 35.2938 7.88367 35.5714 8.55647 35.5714 9.25801L 35.5714 10.2605C 35.5697 10.9617 35.2922 11.6338 34.7994 12.1306L 33.7085 13.2257L 33.0788 13.2257C 31.8846 13.2258 30.7129 13.5517 29.689 14.1687L 25.5798 16.6433L 28.0461 12.5168ZM 15.8095 6.89193C 15.8072 6.10905 16.0364 5.34309 16.4683 4.69117L 16.654 4.41211C 17.0146 3.86712 17.5043 3.42044 18.0791 3.11207C 18.6539 2.8037 19.2959 2.64327 19.9477 2.64515L 22.2111 2.64515C 22.8628 2.64327 23.5048 2.8037 24.0796 3.11207C 24.6544 3.42044 25.1441 3.86712 25.5047 4.41211L 25.6905 4.69117C 26.1223 5.34309 26.3516 6.10905 26.3492 6.89193L 26.3492 9.11517C 26.3487 9.83436 26.1544 10.54 25.7867 11.1572L 22.7842 16.183C 22.6524 16.1394 22.5286 16.097 22.3968 16.0626L 22.3968 13.2257L 19.7619 13.2257L 19.7619 16.0587C 19.6302 16.0931 19.4984 16.1354 19.3746 16.179L 16.3734 11.1533C 16.0058 10.5374 15.811 9.83315 15.8095 9.11517L 15.8095 6.89193ZM 6.5873 9.25801C 6.5873 8.55647 6.86491 7.88367 7.35905 7.38761C 7.8532 6.89155 8.5234 6.61287 9.22222 6.61287L 10.2195 6.61287C 10.5659 6.61204 10.9089 6.68011 11.2289 6.81313C 11.5489 6.94616 11.8394 7.14151 12.0837 7.38789L 13.1746 8.48298L 13.1746 9.11517C 13.1749 10.3138 13.4991 11.4899 14.1126 12.5182L 16.5789 16.6433L 12.4698 14.1687C 11.4459 13.5517 10.2741 13.2258 9.07994 13.2257L 8.45019 13.2257L 7.35933 12.1306C 6.8665 11.6338 6.58903 10.9617 6.5873 10.2605L 6.5873 9.25801ZM 2.63492 20.0251C 2.6341 19.371 2.79436 18.7269 3.10145 18.15C 3.40854 17.5731 3.85292 17.0814 4.39505 16.7186L 4.67303 16.5322C 5.32227 16.0983 6.08537 15.8681 6.86529 15.8709L 9.07994 15.8709C 9.79664 15.8704 10.4999 16.0661 11.1141 16.4369L 16.1204 19.4498C 16.077 19.582 16.0348 19.7063 16.0006 19.8386L 13.1746 19.8386L 13.1746 22.4837L 15.9966 22.4837C 16.0309 22.616 16.073 22.7482 16.1165 22.8726L 11.1101 25.8854C 10.4971 26.2555 9.7953 26.4512 9.07994 26.4514L 6.86529 26.4514C 6.08537 26.4542 5.32227 26.224 4.67303 25.7902L 4.39505 25.6037C 3.85292 25.2409 3.40854 24.7492 3.10145 24.1723C 2.79436 23.5954 2.6341 22.9513 2.63492 22.2972L 2.63492 20.0251Z" transform="translate(0.317444 0)" fill="#DD87A5"/>
</g>
<g id="Vector_2">
<path d="M 56.6508 0L 1.31746 0C 0.968048 0 0.632946 0.139341 0.385874 0.387371C 0.138802 0.635402 0 0.971804 0 1.32257L 0 6.61286C 0.0084096 12.3554 1.97308 17.9224 5.56781 22.3895C 9.16255 26.8565 14.1711 29.955 19.7619 31.1704L 19.7619 35.7094C 19.7619 36.0602 19.9007 36.3966 20.1478 36.6446C 20.3948 36.8927 20.73 37.032 21.0794 37.032L 36.8889 37.032C 37.2383 37.032 37.5734 36.8927 37.8205 36.6446C 38.0675 36.3966 38.2063 36.0602 38.2063 35.7094L 38.2063 31.1704C 43.7971 29.955 48.8057 26.8565 52.4004 22.3895C 55.9952 17.9224 57.9598 12.3554 57.9683 6.61286L 57.9683 1.32257C 57.9683 0.971804 57.8294 0.635402 57.5824 0.387371C 57.3353 0.139341 57.0002 0 56.6508 0ZM 50.0635 2.64514L 50.0635 5.29029L 2.63492 5.29029L 2.63492 2.64514L 50.0635 2.64514ZM 35.5714 34.3869L 22.3968 34.3869L 22.3968 31.6002C 23.2721 31.6935 24.1516 31.7407 25.0317 31.7417L 32.9365 31.7417C 33.8167 31.7407 34.6962 31.6935 35.5714 31.6002L 35.5714 34.3869ZM 55.3333 6.61286C 55.3267 12.5739 52.9649 18.2888 48.7661 22.5039C 44.5674 26.719 38.8745 29.0899 32.9365 29.0966L 25.0317 29.0966C 19.3254 29.0871 13.8376 26.8923 9.68808 22.9599C 5.53856 19.0275 3.03998 13.6539 2.70211 7.93543L 49.8527 7.93543C 49.2173 12.3375 47.0255 16.3632 43.6778 19.2771C 40.3301 22.191 36.0499 23.7986 31.619 23.8063L 30.3016 23.8063L 30.3016 26.4514L 31.619 26.4514C 37.2076 26.4448 42.5654 24.2132 46.5171 20.2461C 50.4688 16.2791 52.6918 10.9005 52.6984 5.29029L 52.6984 2.64514L 55.3333 2.64514L 55.3333 6.61286Z" transform="translate(24.0317 44.9674)" fill="#DD87A5"/>
</g>
<g id="Vector_3">
<path d="M 1.4804 0.0101535C 1.28139 -0.0147458 1.07935 0.00629342 0.889672 0.0716647C 0.699993 0.137036 0.527683 0.245016 0.385875 0.387374C 0.244068 0.529732 0.136506 0.702711 0.0713871 0.893126C 0.00626847 1.08354 -0.014688 1.28637 0.0101151 1.48615C 0.0377817 1.70966 2.98362 23.8059 19.7615 23.8059C 20.1109 23.8058 20.4459 23.6664 20.6929 23.4184L 23.3278 20.7732C 23.5749 20.5252 23.7138 20.1889 23.7139 19.8382C 23.7139 2.9952 1.70305 0.0379275 1.4804 0.0101535ZM 2.952 2.96346C 7.77786 4.00036 20.66 7.83846 21.0684 19.28L 11.4707 9.64509L 9.60781 11.5152L 19.2055 21.1501C 7.80816 20.7388 3.98489 7.80275 2.952 2.96346Z" transform="translate(0.317871 58.1936)" fill="#DD87A5"/>
</g>
<g id="Vector_4">
<path d="M 3.02094 23.4184C 3.26795 23.6664 3.603 23.8058 3.95238 23.8059C 20.7302 23.8059 23.6761 1.70966 23.7037 1.48614C 23.7285 1.28637 23.7076 1.08354 23.6425 0.893125C 23.5774 0.702709 23.4698 0.52973 23.328 0.387373C 23.1862 0.245015 23.0139 0.137035 22.8242 0.0716635C 22.6345 0.00629216 22.4325 -0.0147445 22.2335 0.0101548C 22.0108 0.0379288 0 2.9952 0 19.8382C 7.46175e-05 20.1889 0.138926 20.5252 0.386015 20.7732L 3.02094 23.4184ZM 20.7619 2.96346C 19.729 7.80804 15.9057 20.7388 4.50835 21.1501L 14.106 11.5152L 12.2432 9.64509L 2.64546 19.28C 3.05387 7.83846 15.9413 4.00035 20.7619 2.96346Z" transform="translate(50.3809 10.5811)" fill="#DD87A5"/>
</g>
</g>
</g>
</g>
</svg>

